<svg fill="#FFFFFF" xmlns:dc="http://purl.org/dc/elements/1.1/" xmlns:cc="http://creativecommons.org/ns#" xmlns:rdf="http://www.w3.org/1999/02/22-rdf-syntax-ns#" xmlns:svg="http://www.w3.org/2000/svg" xmlns="http://www.w3.org/2000/svg" xmlns:sodipodi="http://sodipodi.sourceforge.net/DTD/sodipodi-0.dtd" xmlns:inkscape="http://www.inkscape.org/namespaces/inkscape" version="1.1" x="0px" y="0px" viewBox="0 0 100 100"><g transform="translate(0,-952.36218)"><path style="text-indent:0;text-transform:none;direction:ltr;block-progression:tb;baseline-shift:baseline;color:#000000;enable-background:accumulate;" d="m 91.715614,961.35763 a 2.0001999,2.0001999 0 0 0 -1.1875,0.625 c -10.84022,11.3417 -36.103452,38.43667 -47.687502,50.59377 l -15.53125,-13.71877 a 2.003476,2.003476 0 1 0 -2.65625,2.99997 l 17,15.0001 a 2.0001999,2.0001999 0 0 0 2.78125,-0.125 c 11.14026,-11.6554 37.917942,-40.40537 49.000002,-52.00007 a 2.0001999,2.0001999 0 0 0 -1.71875,-3.375 z m -45.281252,2.0313 c -4.91808,-0.057 -9.85992,0.8031 -14.59375,2.5937 -20.63579,7.8056 -31.05555016,30.9267 -23.2500002,51.56257 7.8056302,20.6358 30.9267002,31.0555 51.5625002,23.25 20.635792,-7.8056 31.024302,-30.9267 23.218752,-51.56257 a 2.0001996,2.0002002 0 1 0 -3.71875,1.4375 c 7.04071,18.61387 -2.32366,39.33427 -20.937502,46.37507 -18.61383,7.0407 -39.36553,-2.3237 -46.40625,-20.9375 -7.0407202,-18.61387 2.32366,-39.33427 20.9375,-46.37507 11.36531,-4.2989 24.12041,-2.5982 33.9375,4.5625 a 2.0041147,2.0041153 0 0 0 2.375,-3.2187 c -6.81497,-4.9709 -14.92829,-7.5927 -23.125,-7.6875 z" fill="#FFFFFF" fill-opacity="1" stroke="none" marker="none" visibility="visible" display="inline" overflow="visible"></path></g></svg>