<svg fill="#FFFFFF" xmlns:dc="http://purl.org/dc/elements/1.1/" xmlns:cc="http://creativecommons.org/ns#" xmlns:rdf="http://www.w3.org/1999/02/22-rdf-syntax-ns#" xmlns:svg="http://www.w3.org/2000/svg" xmlns="http://www.w3.org/2000/svg" xmlns:sodipodi="http://sodipodi.sourceforge.net/DTD/sodipodi-0.dtd" xmlns:inkscape="http://www.inkscape.org/namespaces/inkscape" viewBox="0 0 100 100" version="1.1" x="0px" y="0px"><g transform="translate(0,-952.36216)"><path style="opacity:1;fill:#FFFFFF;fill-opacity:1;stroke:none;stroke-width:2;stroke-linecap:butt;stroke-linejoin:miter;stroke-miterlimit:4;stroke-dasharray:none;stroke-dashoffset:0;stroke-opacity:1" d="m 50,957.36216 a 35.585729,35.585729 0 0 0 -35.585884,35.58584 35.585729,35.585729 0 0 0 23.457597,33.4079 l 12.127971,21.0063 12.118008,-20.9887 A 35.585729,35.585729 0 0 0 85.585884,992.948 35.585729,35.585729 0 0 0 50,957.36216 Z m 0,9.18975 A 26.396155,26.396155 0 0 1 76.396043,992.948 26.396155,26.396155 0 0 1 50,1019.3441 26.396155,26.396155 0 0 1 23.603957,992.948 26.396155,26.396155 0 0 1 50,966.55191 Z"></path><path style="color:#000000;font-style:normal;font-variant:normal;font-weight:normal;font-stretch:normal;font-size:medium;line-height:normal;font-family:sans-serif;text-indent:0;text-align:start;text-decoration:none;text-decoration-line:none;text-decoration-style:solid;text-decoration-color:#000000;letter-spacing:normal;word-spacing:normal;text-transform:none;direction:ltr;block-progression:tb;writing-mode:lr-tb;baseline-shift:baseline;text-anchor:start;white-space:normal;clip-rule:nonzero;display:inline;overflow:visible;visibility:visible;opacity:1;isolation:auto;mix-blend-mode:normal;color-interpolation:sRGB;color-interpolation-filters:linearRGB;solid-color:#000000;solid-opacity:1;fill:#FFFFFF;fill-opacity:1;fill-rule:nonzero;stroke:none;stroke-width:16;stroke-linecap:butt;stroke-linejoin:miter;stroke-miterlimit:4;stroke-dasharray:none;stroke-dashoffset:0;stroke-opacity:1;color-rendering:auto;image-rendering:auto;shape-rendering:auto;text-rendering:auto;enable-background:accumulate" d="m 48.711227,975.94677 0,4.86516 c -5.70435,0.60206 -10.239806,5.15115 -10.841887,10.83398 l -4.870578,0 0,2.57797 4.870262,0 c 0.600974,5.69932 5.139593,10.23382 10.842203,10.83392 l 0,4.8913 2.577862,0 0,-4.8919 c 5.686005,-0.6014 10.239332,-5.13258 10.842204,-10.83332 l 4.869945,0 0,-2.57797 -4.870578,0 c -0.604137,-5.68425 -5.153984,-10.23027 -10.841571,-10.83365 l 0,-4.86549 -2.577862,0 z m 0,7.46201 0,8.23713 -8.24473,0 c 0.570925,-4.28114 3.943654,-7.66641 8.24473,-8.23713 z m 2.577862,0.002 c 4.281149,0.57344 7.669694,3.95953 8.244098,8.23617 l -8.244098,0 0,-8.23617 z m -10.823541,10.81414 8.245679,0 0,8.23739 c -4.305346,-0.5671 -7.677442,-3.93661 -8.245679,-8.23739 z m 10.823541,0 8.245047,0 c -0.571716,4.29632 -3.959628,7.66679 -8.245047,8.23679 l 0,-8.23679 z"></path></g></svg>