<svg fill="#FFFFFF" xmlns:dc="http://purl.org/dc/elements/1.1/" xmlns:cc="http://creativecommons.org/ns#" xmlns:rdf="http://www.w3.org/1999/02/22-rdf-syntax-ns#" xmlns:svg="http://www.w3.org/2000/svg" xmlns="http://www.w3.org/2000/svg" xmlns:sodipodi="http://sodipodi.sourceforge.net/DTD/sodipodi-0.dtd" xmlns:inkscape="http://www.inkscape.org/namespaces/inkscape" version="1.1" x="0px" y="0px" viewBox="0 0 100 100"><g transform="translate(0,-952.36218)"><path style="color:#000000;enable-background:accumulate;" d="m 50,965.36216 c -14.9117,0 -27,12.0883 -27,27 0,5.37429 1.1984,8.85854 4,13.00004 l 23,34 23,-34 c 2.8017,-4.1416 4,-7.62574 4,-13.00004 0,-14.9117 -12.0883,-27 -27,-27 z m 0,14 c 6.6274,0 12,5.3726 12,12 0,6.6273 -5.3726,12.00004 -12,12.00004 -6.6274,0 -12,-5.37274 -12,-12.00004 0,-6.6274 5.3726,-12 12,-12 z" fill="#FFFFFF" stroke="none" marker="none" visibility="visible" display="inline" overflow="visible"></path></g></svg>